<?xml version="1.0" encoding="UTF-8"?>
<svg id="Capa_1" xmlns="http://www.w3.org/2000/svg" version="1.1" xmlns:xlink="http://www.w3.org/1999/xlink" viewBox="0 0 802.58 768">
  <!-- Generator: Adobe Illustrator 30.3.0, SVG Export Plug-In . SVG Version: 2.1.3 Build 182)  -->
  <defs>
    <style>
      .st0, .st1 {
        fill: #fff;
      }

      .st2 {
        fill: none;
      }

      .st1 {
        font-family: MyriadPro-Regular, 'Myriad Pro';
        font-size: 41.4px;
      }

      .st3 {
        fill: #003e99;
      }

      .st4 {
        clip-path: url(#clippath);
      }
    </style>
    <clipPath id="clippath">
      <rect class="st2" x="993.63" y="78.7" width="400.08" height="376.52"/>
    </clipPath>
  </defs>
  <text class="st1" transform="translate(192.78 173.08)"><tspan x="0" y="0">#003e99</tspan></text>
  <g>
    <rect class="st0" x="978.65" y="78.7" width="400.08" height="376.52" rx="72.55" ry="72.55"/>
    <path class="st3" d="M978.63,397.3l30.83,5.01c2.14,5.01,5.01,9.32,8.6,12.41,3.35,2.88,7.32,4.3,11.28,4.3,4.75,0,9.47-2.05,13-6.06.93-1.05,1.78-2.2,2.58-3.41l71.42,11.37c5.37.85,10.37,1.27,15.52,1.27,2.56,0,5.16-.1,7.86-.31l116.44-8.77,52.05-3.8.23-.02c10.74-1.03,18.81-8.43,20.07-18.4,1.11-8.75,1.59-17.71,1.49-27.38l-.21-18.45.97-1.63v-2.78c.1-46.47-3.01-91.82-9.5-138.31l8.37-1.19c.38,10.47.88,20.94,1.77,31.74l.08.99.27.96c.8,2.79,2.38,6.88,6.88,10.13,0,0,2.26,1.12,3.16,1.37s3.65.51,3.65.51c.7-.06,1.51-.06,2.37-.06,16.98-.14,20.78-8.55,20.98-15.57.33-11.53.08-23.46-.76-36.46-.59-9.18-5.24-16.5-13.09-20.6-7.46-3.9-15.96-5.62-24.61-5l-14.11,1.03c-2.46-10.93-6.87-22.96-23.29-28.57-14.68-5.01-29.21-7.76-40.23-9.6-38.03-6.35-76.73-9.24-118.43-8.91-8.78.07-17.14,1.46-27.1,4.5l-31.61,9.64-27.3-2.43c-8.36-.75-15.88.29-25.16,3.45l-44.57,15.21M1244.66,360.37s0-.01,0-.04c0,0,0,0,0,0v.04Z"/>
    <g class="st4">
      <g>
        <path class="st0" d="M1042.22,342.76c-2.45-4.37-5.14-8.39-8.95-11.48-5.37-4.35-13.48-3.52-17.9,1.79-11.78,14.15-12.26,39.93-10.18,58.26l-26.68-4.3-84.17-14.33c1.87-14.15.99-34.79-7.53-45.91-1.42-.98-3.35-1.94-4.79-1.75-1.08.14-2.97,1.4-3.76,2.49-7.39,10.2-7.06,28.42-5.83,40.64-5.26-1.01-10.69-.83-15.44-2.52-8.07-2.88-15.18-7.48-22.8-11.65-.66-27.58-1.09-54.33,0-81.67.6-15.03,1.29-29.3,3.16-44.12.42-3.35,2.29-7.94,5.8-9.02l80.87-24.91c1.11-7.41,5.42-13.3,12.7-15.78l91.59-31.26c6.13-2.09,12.63-2.88,19.08-2.3l29.27,2.61,33.5-10.22c8.02-2.45,15.63-3.99,24.23-4.06,39.22-.33,78,2.32,116.68,8.77,13.4,2.24,26.03,4.9,38.63,9.2,14.86,5.07,15.59,16.48,18.45,29.73l22.96-1.68c6.74-.49,13.39.85,19.17,3.87,4.82,2.52,7.32,6.89,7.67,12.27.78,11.96,1.09,23.58.75,35.51-.16,5.58-5.99,5.67-10.82,5.72-2.87.02-5.52-1.77-6.32-4.52,0-.02-.01-.04-.02-.06-1.17-14.2-1.66-27.84-2.1-42.55l-29.64,4.22c7.31,48.89,10.96,97.56,10.86,146.9-1.05,1.75-2.46,3.1-4.13,4.08l-16.45,9.59c-6.49,3.78-9,10.39-11.2,17.47-.22.71,1.82,1.92,2.47,1.97l12.63-1.7c6.28-.84,11.22-3.86,15.92-8.41.1,8.94-.31,17.38-1.4,25.99-.72,5.7-5.38,9.04-10.98,9.58l-52.05,3.8-116.47,8.77c-7.02.53-14.08.24-21.04-.87l-68.75-10.94c2.01-19.3,1.8-39.28-6.96-57.18ZM1130.84,213.5l2.46,90.5c.19,6.89,2.69,12.54,8.53,16.37,10.07,6.59,21.34,11.66,33.26,14.25,6.69,1.46,13.13,1.55,20.12,1.84,32.4,1.34,64.37.27,96.68-2.33,7.88-.63,13.97-3.46,19.67-8.59,3.43-3.09,5.68-6.59,5.31-11.61l-5.95-80.11c-1.57-21.1-4.95-41.41-8.7-62.05-1.3-7.14-5.97-11.48-13.06-12.92-45.1-9.12-90.66-13.67-136.74-14.38-4.53-.07-8.49.32-12.67,1.06-8.67,1.52-9.25,11.72-8.74,19.01,6.89-.85,12.93-1.49,19.26-.03,8.04,1.85,13.44,7.85,14.2,16.2,1.27,14,1.55,27.84,1.53,41.98-.01,7.63-10.52,6.1-17.07,5.9-3.13-.1-5.27-2.38-5.64-5.47-1.81-15.29-2.46-30.09-2.34-45.83-3.41.36-6.51.91-10.23,1.69l.13,34.54ZM1122.56,272.97l-.12-92.12-9.32,1.61c-3.61.62-5.9-2.96-6.02-6.32-.09-2.58.3-6.71,3.23-7.52,4.01-1.11,7.66-1.79,11.99-2.69.14-2.49.15-5.3-.29-7.69-.71-3.87-3.92-5.82-7.67-5.96-2.31.36-4.7.69-6.94,1.33l-35.53,10.24-3.21,105.93c-.19,6.2,1.53,11.13,5.38,15.61,7.42,8.65,14.86,16.88,22.92,24.97,6.28,6.31,15.41,3.95,25.7,4.47l-.12-41.88ZM1057.71,267.82l3.51-100.71-61.78,17.62-2.71,88.18,60.98-5.09ZM992.21,273.39l2.77-87.28-48.44,13.6-2.3,77.64,47.97-3.97ZM940.35,277.71l2.29-76.79-39.51,10.83-2.04,69.39,39.26-3.43ZM897.62,281.49l1.99-68.7-32.43,9-1.69,62.41,32.13-2.71ZM847.49,285.6l14.79-1.09,1.69-61.7-20.01,5.63c-.77,1.37-1.57,3.36-1.7,4.9-1.08,12.52-1.9,24.55-1.75,37.58.07,5.79,3.33,10.74,6.97,14.68ZM1189.92,378.49c7.74-.08-2.06-15.25-9.75-19.19-12.51-6.4-25.87-10.14-39.73-12.42-1.51-.25-3.55.16-5,.71.05,7.32,1.45,18.87,8.63,22.5,20.22,10.23,22.22,8.64,45.86,8.41ZM1236.58,366.47c1.56,2.05,4.42,3.79,7.55,3.42,4.76-.57,7.75-4.47,8.29-8.45.62-4.59-1.25-9.25-5.69-10.95-5.31-2.04-10.78,1.66-11.98,7.4-.67,3.24,0,6.19,1.81,8.58Z"/>
        <path class="st0" d="M1024.68,407.03c3.26,2.8,7.44,2.19,10.05-.78,10.52-11.93,9.62-41.79-1.76-53.61-3.07-3.19-7.7-3.06-10.68.43-10.57,12.4-9.48,43.74,2.38,53.96Z"/>
        <path class="st0" d="M884.01,379.89c2.78.18,4.46-3.14,5.2-5.47,3.13-9.77,2.8-20.4-.91-29.92-.72-1.86-2.85-4.18-4.74-3.93-2.42.32-3.92,3.17-4.64,5.5-2.94,9.46-2.61,19.64.64,29,.64,1.85,2.36,4.68,4.45,4.81Z"/>
      </g>
    </g>
  </g>
  <polygon class="st0" points="993.61 159.05 978.49 163.93 978.46 387.07 994.07 389.51 999.2 367.03 994.19 269.4 997.33 175.03 993.61 159.05"/>
</svg>