<?xml version="1.0" encoding="UTF-8"?>
<svg id="Capa_1" xmlns="http://www.w3.org/2000/svg" version="1.1" viewBox="0 0 802.58 768">
  <!-- Generator: Adobe Illustrator 30.3.0, SVG Export Plug-In . SVG Version: 2.1.3 Build 182)  -->
  <defs>
    <style>
      .st0 {
        fill: #fff;
      }

      .st1 {
        fill: #003e99;
      }
    </style>
  </defs>
  <rect class="st1" x="61.3" y="53.14" width="669.73" height="669.73" rx="94.88" ry="94.88"/>
  <path class="st0" d="M504.2,362.06c-11.37-27.29-38.38-46.71-71.88-52.35,24.82-23.75,45.69-49.06,46.75-85.53.97-33.29-23.15-60.75-60.02-68.34-54.67-11.25-110.82,20.67-126.75,30.72-16.64,10.49-28.31,23.77-35.69,40.57-9.03,20.58-17.5,41.98-26.67,67.38l-42.31,117.27c-5.1,14.13,1.03,29.07,14.9,36.32,13.35,6.98,31.32,5.33,42.74-3.93l.55-.45c23.46-19.02,45.62-36.99,72.4-51.45,22.53-12.16,77.86-38.52,105.13-20.43,24.63,16.34,12.9,54.2,2.09,74-23.12,42.34-62.01,78.74-109.49,102.5-14.5,7.25-28.65,11.43-42.06,12.43-5.68.42-10.55-.95-13.72-3.85-2.3-2.1-3.54-4.94-3.59-8.21-.12-8.52,2.99-16.87,9.25-24.8,17.45-22.08,44.36-36.72,73.83-40.17,20.03-2.35,32.74-12.19,35.8-27.72,1.84-9.37-1.63-18.96-9.29-25.65-16.62-14.53-49.28-5.89-62.53-1.5-46.28,15.3-83.85,43.9-105.77,80.52-10.65,17.79-14.78,36.17-12.28,54.63,3.68,27.22,24.67,48.5,54.77,55.53,8.82,2.06,17.75,2.95,26.59,2.95,35.49,0,69.49-14.28,88.79-24.18,48.95-25.11,90.61-61.11,120.48-104.12,15.6-22.46,49.56-80.31,27.94-132.17ZM383.28,276.99c-21.14,21.66-48.2,40.42-82.73,57.35l-14.97,7.34,33.33-91.21c1.2-3.29,3.69-10.14,6.05-12.18,14.17-12.25,43.86-26.39,64.29-26.39,7.19,0,13.23,1.75,17.04,5.95,13.21,14.53-8.24,44.01-23.01,59.13Z"/>
  <path class="st0" d="M607.41,220.7c0,24.98-20.25,45.23-45.23,45.23s-45.23-20.25-45.23-45.23c0-15.82,18.14-40.43,31.45-56.36,7.19-8.6,20.37-8.6,27.56,0,13.3,15.92,31.45,40.53,31.45,56.36Z"/>
</svg>