<?xml version="1.0" encoding="UTF-8"?>
<svg id="Capa_1" xmlns="http://www.w3.org/2000/svg" version="1.1" viewBox="0 0 1366 768">
  <!-- Generator: Adobe Illustrator 30.3.0, SVG Export Plug-In . SVG Version: 2.1.3 Build 182)  -->
  <defs>
    <style>
      .st0 {
        fill: #fff;
      }
    </style>
  </defs>
  <g>
    <g>
      <path class="st0" d="M132.7,282.36H59v-51.59h206.35v51.59h-73.7v206.36h-58.96v-206.36Z"/>
      <path class="st0" d="M530.62,230.78v148.5c0,77.76-31.69,109.44-108.34,109.44h-26.53c-76.65,0-108.34-31.69-108.34-109.44v-148.5h58.96v147.4c0,42.01,12.17,58.96,55.65,58.96h14c43.49,0,55.65-16.95,55.65-58.96v-147.4h58.96Z"/>
      <path class="st0" d="M1071.47,230.78v148.5c0,77.76-31.69,109.44-108.33,109.44h-26.53c-76.64,0-108.34-31.69-108.34-109.44v-148.5h58.96v147.4c0,42.01,12.16,58.96,55.65,58.96h14c43.49,0,55.65-16.95,55.65-58.96v-147.4h58.95Z"/>
      <path class="st0" d="M1097.22,437.13h95.44c44.95,0,56.38-9.59,56.38-25.8s-10.68-26.16-42.74-26.16h-22.85c-58.22,0-86.23-29.11-86.23-77.02s30.96-77.38,111.29-77.38h83.64v51.59h-78.12c-46.06,0-57.84,9.59-57.84,25.8s11.05,25.43,42.74,25.43h22.85c58.59,0,86.23,29.84,86.23,77.75s-30.22,77.38-109.45,77.38h-101.33v-51.59Z"/>
    </g>
    <g>
      <path class="st0" d="M163.54,603.66h30.44c14.33,0,17.97-3.06,17.97-8.23s-3.41-8.34-13.62-8.34h-7.29c-18.57,0-27.5-9.29-27.5-24.56s9.87-24.68,35.49-24.68h26.68v16.46h-24.92c-14.69,0-18.45,3.05-18.45,8.22s3.53,8.11,13.63,8.11h7.29c18.68,0,27.49,9.52,27.49,24.79s-9.63,24.68-34.9,24.68h-32.31v-16.45Z"/>
      <path class="st0" d="M1136.24,603.66h30.44c14.33,0,17.97-3.06,17.97-8.23s-3.41-8.34-13.62-8.34h-7.29c-18.57,0-27.5-9.29-27.5-24.56s9.87-24.68,35.49-24.68h26.68v16.46h-24.92c-14.69,0-18.45,3.05-18.45,8.22s3.53,8.11,13.63,8.11h7.29c18.68,0,27.49,9.52,27.49,24.79s-9.63,24.68-34.9,24.68h-32.31v-16.45Z"/>
      <path class="st0" d="M328.11,620.11c-24.45,0-34.79-15.28-34.79-40.9s9.64-41.37,34.79-41.37h31.84v16.46h-29.84c-11.53,0-16.11,5.99-17.52,16.45h39.6v16.45h-39.6c1.41,10.46,6.24,16.45,17.52,16.45h29.84v16.45h-31.84Z"/>
      <path class="st0" d="M426.97,537.84h40.78c19.04,0,28.32,9.64,28.32,25.74,0,7.41-3.65,13.4-8.7,17.75,4.7,4.23,8.22,9.87,8.22,16.81v21.98h-18.8v-20.1c0-8.45-4.69-10.8-12.34-10.8h-18.68v31.03h-18.8v-82.39ZM465.63,572.76c7.88,0,11.64-3.53,11.64-9.18s-3.53-9.27-11.76-9.27h-19.73v18.45h19.86Z"/>
      <path class="st0" d="M627.97,537.84h19.98l-25.98,70.75c-2.94,7.99-10.34,13.28-19.27,13.28-8.46,0-16.45-5.29-19.39-13.17l-26.09-70.86h19.98l20.57,55.82c1.41,3.88,3.3,5.88,4.94,5.88,1.76,0,3.41-2,4.81-5.99l20.46-55.71Z"/>
      <path class="st0" d="M709.1,537.84h18.8v82.27h-18.8v-82.27Z"/>
      <path class="st0" d="M830.87,620.11c-24.45,0-34.79-15.28-34.79-40.9s9.63-41.37,34.79-41.37h31.85v16.46h-29.85c-14.34,0-17.98,9.27-17.98,25.03s4.12,24.33,17.98,24.33h29.85v16.45h-31.85Z"/>
      <path class="st0" d="M929.75,537.84h18.79v82.27h-18.79v-82.27Z"/>
      <path class="st0" d="M1051.51,537.84h16.1c24.92,0,34.79,15.52,34.79,41.37s-10.34,40.9-34.79,40.9h-16.1c-24.45,0-34.79-15.28-34.79-40.9s9.63-41.37,34.79-41.37ZM1053.5,603.66h12c13.87,0,18.08-9.05,18.08-24.33s-3.87-25.03-18.08-25.03h-12c-14.33,0-17.98,9.27-17.98,25.03s4.12,24.33,17.98,24.33Z"/>
    </g>
  </g>
  <path class="st0" d="M802.73,310.22c-8.88-21.29-29.95-36.45-56.09-40.85,19.37-18.53,35.65-38.28,36.49-66.74.75-25.98-18.07-47.41-46.83-53.33-42.66-8.78-86.48,16.13-98.91,23.98-12.98,8.19-22.09,18.55-27.85,31.66-7.05,16.06-13.66,32.76-20.81,52.58l-33.01,91.51c-3.98,11.03.8,22.68,11.62,28.35,10.42,5.44,24.44,4.16,33.36-3.07l.43-.35c18.31-14.84,35.6-28.87,56.5-40.15,17.58-9.49,60.75-30.06,82.04-15.94,19.22,12.75,10.07,42.3,1.63,57.75-18.05,33.04-48.39,61.45-85.44,79.99-11.32,5.66-22.36,8.92-32.82,9.7-4.43.33-8.23-.74-10.7-3-1.79-1.64-2.76-3.85-2.8-6.4-.1-6.65,2.33-13.16,7.22-19.35,13.62-17.23,34.62-28.66,57.62-31.35,15.63-1.83,25.55-9.51,27.93-21.63,1.43-7.31-1.28-14.79-7.25-20.02-12.97-11.34-38.45-4.59-48.8-1.17-36.12,11.94-65.43,34.26-82.54,62.84-8.31,13.88-11.53,28.23-9.58,42.63,2.87,21.24,19.25,37.85,42.74,43.33,6.88,1.61,13.85,2.3,20.75,2.3,27.7,0,54.23-11.14,69.29-18.87,38.2-19.59,70.71-47.69,94.02-81.25,12.18-17.53,38.68-62.67,21.81-103.14ZM708.37,243.84c-16.5,16.9-37.61,31.54-64.56,44.75l-11.68,5.73,26.01-71.17c.94-2.57,2.88-7.91,4.72-9.5,11.06-9.56,34.22-20.59,50.17-20.59,5.61,0,10.32,1.36,13.3,4.64,10.31,11.34-6.43,34.34-17.95,46.15Z"/>
</svg>